<svg width="841" height="500" viewBox="0 0 841 500" fill="none" xmlns="http://www.w3.org/2000/svg">
<g clip-path="url(#clip0_36_3)">
<path d="M511 467C489.667 467 474.333 460.833 465 448.5C455.667 435.833 451 417.167 451 392.5C451 367.5 461.5 297 482.5 181L456 127.5C493.667 103.167 528 91 559 91C579.667 91 592 101 596 121C630.333 101.333 664 91.5 697 91.5C718.667 91.5 737.667 96.5 754 106.5C773.333 118.167 783 138.333 783 167C783 214.333 756.833 248.667 704.5 270C757.833 279.333 784.5 309.167 784.5 359.5C784.5 392.167 771 418.167 744 437.5C717 456.833 686.667 466.5 653 466.5C619.667 466.5 592.833 459.5 572.5 445.5C552.833 459.833 532.333 467 511 467ZM669 348.5C669 332.833 664.333 321.333 655 314C646 306.667 633.833 303 618.5 303C603.167 303 586 306.167 567 312.5C561.667 340.833 559 365 559 385C575.333 392.667 592.333 396.5 610 396.5C627.667 396.5 641.833 392.333 652.5 384C663.5 375.667 669 363.833 669 348.5ZM636.5 157.5C623.5 157.5 609.5 160 594.5 165C592.5 178 586.333 211.333 576 265C603.667 263 627.167 256.333 646.5 245C665.833 233.333 675.5 216.667 675.5 195C675.5 170 662.5 157.5 636.5 157.5Z" fill="black"/>
<path d="M374.5 157L370.5 276C370.5 317 373.833 351.5 380.5 379.5C387.5 407.5 400.333 426.833 419 437.5C396 451.833 372.667 459 349 459C307.333 459 281.667 425.333 272 358H170C163.667 379.667 160.5 396.333 160.5 408C160.5 419.333 161.833 428.5 164.5 435.5C139.833 451.167 117.833 459 98.5 459C68.8333 459 54 441 54 405C54 387 59.5 364.333 70.5 337C81.8333 309.667 96.6667 278.333 115 243C133.667 207.667 145.5 184.333 150.5 173C146.833 155 142.667 137.333 138 120C155.333 108 172 99 188 93C204.333 86.6667 221.833 83.5 240.5 83.5C259.5 83.5 272.667 87.6667 280 96C299 87.6667 314.667 83.5 327 83.5C339.333 83.5 348.5 85.5 354.5 89.5C360.5 93.5 364.833 99.3333 367.5 107C372.167 120.333 374.5 137 374.5 157ZM274 168.5H258C228 226.5 205.667 272.167 191 305.5H268.5C268.5 269.167 270.333 223.5 274 168.5Z" fill="black"/>
</g>
<defs>
<clipPath id="clip0_36_3">
<rect width="841" height="500" fill="white"/>
</clipPath>
</defs>
</svg>
