<svg width="147" height="186" viewBox="0 0 147 186" fill="none" xmlns="http://www.w3.org/2000/svg">
<path d="M26.0518 125.749L42.184 22.5208C42.3812 21.2548 43.3658 20.2568 44.629 20.0422C45.8922 19.8276 47.151 20.445 47.755 21.5749L64.4385 52.6922L71.0885 40.0307C71.6035 39.0517 72.6188 38.4387 73.7251 38.4387C74.8314 38.4387 75.8466 39.0517 76.3617 40.0307L121.384 125.749H26.0518V125.749Z" fill="#FFA000"/>
<path d="M26.0518 125.749L42.184 22.5208C42.3812 21.2548 43.3658 20.2568 44.629 20.0422C45.8922 19.8276 47.151 20.445 47.755 21.5749L64.4385 52.6922L71.0885 40.0307C71.6035 39.0517 72.6188 38.4387 73.7251 38.4387C74.8314 38.4387 75.8466 39.0517 76.3617 40.0307L121.384 125.749H26.0518V125.749Z" fill="#FFA000"/>
<path d="M81.7844 85.5374L64.4308 52.6772L26.0518 125.749L81.7844 85.5374Z" fill="#F57C00"/>
<path d="M121.385 125.749L109.029 49.2888C108.842 48.1908 108.059 47.2888 106.997 46.9488C105.936 46.6088 104.775 46.8918 103.987 47.679L26.0518 125.748L69.1752 149.931C71.8832 151.443 75.1812 151.443 77.8892 149.931L121.385 125.748V125.749Z" fill="#FFCA28"/>
<path d="M109.029 49.2889C108.843 48.1909 108.059 47.2889 106.998 46.9489C105.936 46.6089 104.775 46.8919 103.987 47.6791L88.5187 63.1867L76.3552 40.0305C75.8402 39.0515 74.8249 38.4385 73.7186 38.4385C72.6123 38.4385 71.5971 39.0515 71.082 40.0305L64.432 52.692L47.7477 21.5752C47.1427 20.445 45.8824 19.8286 44.6177 20.0448C43.353 20.261 42.3717 21.2615 42.1767 22.5285L26.052 125.749H26L26.052 125.809L26.4765 126.017L103.964 48.4398C104.752 47.6483 105.916 47.3638 106.98 47.7028C108.044 48.0418 108.829 48.9473 109.014 50.0485L121.266 125.823L121.385 125.749L109.029 49.2887L109.029 49.2889ZM26.1935 125.608L42.1842 23.2585C42.379 21.9915 43.3626 20.991 44.6262 20.7748C45.8898 20.5586 47.1502 21.1748 47.7562 22.3052L64.4387 53.4225L71.0887 40.761C71.6037 39.782 72.619 39.169 73.7253 39.169C74.8316 39.169 75.8468 39.782 76.3619 40.761L88.2786 63.425L26.1928 125.608H26.1935Z" fill="white" fill-opacity="0.2"/>
<path opacity="0.2" d="M77.8893 149.202C75.1813 150.714 71.8833 150.714 69.1753 149.202L26.1561 125.086L26.0518 125.749L69.1752 149.925C71.8832 151.437 75.1812 151.437 77.8892 149.925L121.385 125.749L121.273 125.064L77.8893 149.203V149.202Z" fill="#A52714"/>
</svg>
