<svg xmlns="http://www.w3.org/2000/svg" xmlns:xlink="http://www.w3.org/1999/xlink" width="312" height="634"><defs><linearGradient x1="48%" y1="99.9715197%" x2="48%" y2="-0.0358361557%" id="A"><stop offset="0%"/><stop stop-color="#0f0f0f" offset="2.68816%"/><stop stop-color="#1e1f1f" offset="6.98925%"/><stop stop-color="#1e1f1f" offset="94.62%"/><stop stop-color="#0f0f0f" offset="96.77%"/><stop offset="100%"/></linearGradient><linearGradient x1="0.0931740614%" y1="49.9915286%" x2="100.072696%" y2="49.9915286%" id="B"><stop stop-color="#afafaf" offset="0%"/><stop stop-color="#656365" offset="10.22%"/><stop stop-color="#343537" offset="32.26%"/></linearGradient><linearGradient x1="0.10738255%" y1="49.9990663%" x2="99.8154362%" y2="49.9990663%" id="C"><stop stop-color="#afafaf" offset="0%"/><stop stop-color="#656365" offset="10.22%"/><stop stop-color="#343537" offset="32.26%"/></linearGradient><linearGradient x1="100.160068%" y1="49.9915286%" x2="0.180204778%" y2="49.9915286%" id="D"><stop stop-color="#afafaf" offset="0%"/><stop stop-color="#656365" offset="10.22%"/><stop stop-color="#343537" offset="32.26%"/></linearGradient><linearGradient x1="-0.00805369128%" y1="49.9990663%" x2="99.7%" y2="49.9990663%" id="E"><stop stop-color="#343537" offset="67.74%"/><stop stop-color="#656365" offset="89.78%"/><stop stop-color="#afafaf" offset="100%"/></linearGradient><linearGradient x1="22.9134292%" y1="10.6472222%" x2="76.4489524%" y2="86.6175926%" id="F"><stop stop-color="#3f4142" offset="0%"/><stop stop-color="#181a1c" offset="36.56%"/><stop stop-color="#3f4142" offset="96.77%"/></linearGradient><radialGradient cx="49.6333333%" cy="50.0984848%" fx="49.6333333%" fy="50.0984848%" r="49.6090909%" gradientTransform="translate(0.496333,0.500985),scale(1.000000,0.988320),translate(-0.496333,-0.500985)" id="G"><stop stop-color="#3f4142" offset="0%"/><stop stop-color="#181a1c" offset="36.56%"/><stop stop-color="#3f4142" offset="96.77%"/></radialGradient><linearGradient x1="24.8620627%" y1="101.501695%" x2="101.50264%" y2="15.0881356%" id="H"><stop stop-color="#343537" offset="0%"/><stop stop-color="#656365" offset="50.54%"/><stop stop-color="#343537" offset="82.26%"/></linearGradient><linearGradient x1="17.3693774%" y1="100%" x2="17.3693774%" y2="76.3623425%" id="I"><stop stop-color="#747474" offset="0%"/><stop stop-color="#525052" offset="31.2004945%"/><stop stop-color="#343537" offset="100%"/></linearGradient><path id="J" d="M152.194 25.62l-1.023-1.098 1.023-1.098-1.023-1.098 1.023-1.098-1.023-1.098 1.023-1.098"/><path id="K" d="M165.78 25.62l-1.117-1.098 1.117-1.098-1.117-1.098 1.117-1.098-1.117-1.098 1.117-1.098"/></defs><g fill="none" fill-rule="evenodd"><path d="M35.647 633.904c-18.5 0-33.647-15.025-33.647-33.6V33.6C2 15.12 17.05 0 35.647 0h240.706C294.854 0 310 15.025 310 33.6V600.4c0 18.47-15.05 33.6-33.647 33.6H35.647v-.096zM40 14c-13.255 0-24 10.745-24 24v558c0 13.255 10.745 24 24 24h232c13.255 0 24-10.745 24-24V38c0-13.255-10.745-24-24-24H40z" fill="#1e1f1f"/><g fill-rule="nonzero"><path d="M2 102v83a2 2 0 0 1-2-2v-79a2 2 0 0 1 2-2z" fill="url(#A)"/><path d="M310 145v-43a2 2 0 0 1 2 2v39a2 2 0 0 1-2 2z" fill="url(#A)"/><path d="M310 248v-63a2 2 0 0 1 2 2v59a2 2 0 0 1-2 2z" fill="url(#A)"/><path d="M308 600.414c0 17.42-14.19 31.586-31.637 31.586H35.637C18.19 632 4 617.834 4 600.414V33.586C4 16.166 18.19 2 35.637 2h240.727C293.81 2 308 16.166 308 33.586v566.828zM40 14c-13.255 0-24 10.745-24 24v558c0 13.255 10.745 24 24 24h232c13.255 0 24-10.745 24-24V38c0-13.255-10.745-24-24-24H40z" fill="#1e1f1f"/><path d="M12.452 597.557V35.348C12.452 21.392 23.77 10 37.632 10H35.18C21.317 10 10 21.392 10 35.348v562.304C10 611.608 21.317 623 35.18 623h2.452c-13.863-.095-25.18-11.487-25.18-25.443z" fill="url(#B)"/><path d="M8.02 598.072V36.02c0-10.064 5.1-18.893 12.796-24.02C12.563 16.937 7 26.146 7 36.6v560.913c0 10.444 5.563 19.653 13.816 24.6-7.696-5.127-12.796-13.956-12.796-24.02z" fill="url(#C)"/><path d="M299.18 597.557V35.348C299.18 21.392 287.863 10 274 10h2.452c13.863 0 25.18 11.392 25.18 25.348v562.304c0 13.956-11.317 25.348-25.18 25.348H274c13.957-.095 25.18-11.487 25.18-25.443z" fill="url(#D)"/><path d="M303.796 598.072V36.02c0-10.064-5.1-18.893-12.796-24.02 8.252 4.937 13.816 14.146 13.816 24.6v560.913c0 10.444-5.563 19.653-13.816 24.6 7.696-5.127 12.796-13.956 12.796-24.02z" fill="url(#E)"/></g><path d="M95.425 13l125.425.025c-5.244.355-9.393 4.37-9.393 9.256v-.083c0 8.97-7.7 16.32-17.39 16.802h-74.623c-9.68-.48-17.39-7.83-17.39-16.802v.083C102.15 17.163 97.596 13 92 13h3.425z" fill="#1e1f1f"/><g fill-rule="nonzero"><path d="M125.075 26.474a.26.26 0 0 1-.296.3.26.26 0 0 1-.296-.3.26.26 0 0 1 .296-.3c.197-.1.296.1.296.3z" fill="#5c5478"/><path d="M143.176 21.706c0 4.04-3.25 7.33-7.245 7.33s-7.245-3.29-7.245-7.33 3.25-7.33 7.245-7.33 7.245 3.29 7.245 7.33z" fill="#1a1f24"/><path d="M140.854 21.706c0 2.82-2.23 5.075-5.015 5.075s-5.015-2.255-5.015-5.075 2.23-5.075 5.015-5.075 5.015 2.255 5.015 5.075z" fill="url(#F)"/><path d="M138.997 21.706c0 1.692-1.393 3.1-3.065 3.1s-3.065-1.4-3.065-3.1 1.393-3.1 3.065-3.1 3.065 1.4 3.065 3.1z" fill="url(#G)"/><path d="M135.374 26.687h.464c2.786 0 5.015-2.255 5.015-5.075v-.47c-.557 2.82-2.693 5.075-5.48 5.545z" fill="url(#H)"/><path d="M133.052 21.236c0-.282 0-.47.093-.658-.186.376-.28.752-.28 1.222 0 1.692 1.393 3.1 3.065 3.1-1.672-.47-2.88-1.974-2.88-3.665z" fill="#444d57"/><path d="M136.953 20.296a.44.44 0 0 1-.464.47.44.44 0 0 1-.464-.47.44.44 0 0 1 .464-.47c.28.094.464.282.464.47z" fill="#c4cfd7"/><path d="M135.467 22.928a.44.44 0 0 1-.464.47.44.44 0 0 1-.464-.47.44.44 0 0 1 .464-.47.44.44 0 0 1 .464.47z" fill="#2e423f"/><path d="M137.232 19.17c0 .188-.093.282-.28.282s-.28-.094-.28-.282.093-.282.28-.282.28.188.28.282z" fill="#b9a6ac"/><path d="M178.248 18.63h-24.936c-1.86 0-3.35 1.598-3.35 3.595s1.49 3.595 3.35 3.595h24.936c1.86 0 3.35-1.598 3.35-3.595s-1.49-3.595-3.35-3.595zm0 6.4h-24.936c-1.49 0-2.698-1.298-2.698-2.896s1.2-2.896 2.698-2.896h24.936c1.49 0 2.698 1.298 2.698 2.896s-1.2 2.896-2.698 2.896z" fill="#2b2b2b"/></g><g stroke="#5a5a5a" stroke-width=".25"><use xlink:href="#J"/><use xlink:href="#J" x="1.489"/><use xlink:href="#J" x="2.978"/><use xlink:href="#J" x="4.56"/><use xlink:href="#J" x="6.048"/><use xlink:href="#J" x="7.536"/><use xlink:href="#J" x="9.026"/><use xlink:href="#J" x="10.516"/><use xlink:href="#J" x="12.003"/><use xlink:href="#K"/><use xlink:href="#J" x="15.074"/><use xlink:href="#J" x="16.563"/><use xlink:href="#J" x="18.051"/><use xlink:href="#J" x="19.54"/><use xlink:href="#J" x="21.029"/><use xlink:href="#J" x="22.516"/><use xlink:href="#K" x="10.513"/><use xlink:href="#J" x="25.588"/><use xlink:href="#J" x="27.076"/><use xlink:href="#J" x="28.566"/><use xlink:href="#J" x="-0.744"/><use xlink:href="#J" x="0.746"/><use xlink:href="#K" x="-11.26"/><path d="M156 25.62l-1.023-1.098L156 23.423l-1.023-1.098L156 21.227l-1.023-1.098L156 19.03"/><use xlink:href="#J" x="5.306"/><use xlink:href="#J" x="6.793"/><use xlink:href="#J" x="8.282"/><use xlink:href="#J" x="9.771"/><use xlink:href="#J" x="11.259"/><use xlink:href="#K" x="-0.745"/><use xlink:href="#J" x="14.33"/><use xlink:href="#J" x="15.819"/><use xlink:href="#J" x="17.306"/><path d="M171 25.62l-1.023-1.098L171 23.423l-1.023-1.098L171 21.227l-1.023-1.098L171 19.03"/><use xlink:href="#J" x="20.286"/><use xlink:href="#J" x="21.774"/><use xlink:href="#J" x="23.356"/><use xlink:href="#J" x="24.844"/><use xlink:href="#J" x="26.333"/><use xlink:href="#J" x="27.821"/></g><path d="M271.25 624.192H41.717c-6.882 0-13.15-1.99-17.717-5.192 4.6 4.262 11.686 7 19.66 7H269.34c7.972 0 15.06-2.738 19.66-7-4.634 3.203-10.868 5.192-17.75 5.192z" fill="url(#I)" fill-rule="nonzero" opacity=".5"/></g></svg>